<svg width="50" height="50" viewBox="0 0 50 50" fill="none" xmlns="http://www.w3.org/2000/svg">
<path d="M0 5C0 2.23858 2.23858 0 5 0H45C47.7614 0 50 2.23858 50 5V45C50 47.7614 47.7614 50 45 50H5C2.23858 50 0 47.7614 0 45V5Z" fill="url(#paint0_linear)"/>
<path d="M24.2984 28.75H19.7319V39H14V11H24.3366C27.6229 11 30.1577 11.7372 31.9409 13.2115C33.7242 14.6859 34.6158 16.7692 34.6158 19.4615C34.6158 21.3718 34.2018 22.968 33.3739 24.25C32.5587 25.5192 31.3168 26.5321 29.6481 27.2885L35.6667 38.7308V39H29.5144L24.2984 28.75ZM19.7319 24.0769H24.3557C25.795 24.0769 26.9096 23.7115 27.6993 22.9808C28.489 22.2372 28.8839 21.218 28.8839 19.9231C28.8839 18.6026 28.5081 17.5641 27.7566 16.8077C27.0178 16.0513 25.8778 15.6731 24.3366 15.6731H19.7319V24.0769Z" fill="white"/>
<defs>
<linearGradient id="paint0_linear" x1="25" y1="0" x2="25" y2="50" gradientUnits="userSpaceOnUse">
<stop offset="0.315905" stop-color="#1480CE"/>
<stop offset="0.786043" stop-color="#0891F4"/>
<stop offset="1" stop-color="#0496FF"/>
</linearGradient>
</defs>
</svg>
